<svg xmlns="http://www.w3.org/2000/svg" width="542.068" height="326.455" viewBox="0 0 542.068 326.455">
  <g id="Gruppe_60" data-name="Gruppe 60" transform="translate(22611.57 -11257.793)">
    <path id="Pfad_19" data-name="Pfad 19" d="M31.736-2.166,57.9,2.62,35.246,43.46,5.254,49.841Z" transform="translate(-22559 11265)" fill="#3b82f5"/>
    <path id="Pfad_24" data-name="Pfad 24" d="M31.416-2.166,5.254,2.62,27.906,43.46,57.9,49.841Z" transform="translate(-22184.006 11263)" fill="#3b82f5"/>
    <path id="Pfad_20" data-name="Pfad 20" d="M31.736-2.166,57.9,2.62,20.85,82.524-5.312,86.354Z" transform="translate(-22573 11299)" fill="#3b82f5"/>
    <path id="Pfad_25" data-name="Pfad 25" d="M20.85-2.166-5.312,2.62l37.049,79.9L57.9,86.354Z" transform="translate(-22159.439 11297)" fill="#3b82f5"/>
    <path id="Pfad_21" data-name="Pfad 21" d="M31.688-7.347l29.354-3.51-22.654,87.1L11.9,78.8Z" transform="translate(-22610 11386)" fill="#3b82f5"/>
    <path id="Pfad_26" data-name="Pfad 26" d="M41.258-7.347,11.9-10.856l22.654,87.1L61.041,78.8Z" transform="translate(-22142.799 11384)" fill="#3b82f5"/>
    <path id="Pfad_22" data-name="Pfad 22" d="M30.182-23.582l25.525-2.871L48.049,75.008l-26.8,2.553Z" transform="translate(-22627 11482)" fill="#3b82f5"/>
    <path id="Pfad_27" data-name="Pfad 27" d="M46.773-23.582,21.248-26.453,28.906,75.008l26.8,2.553Z" transform="translate(-22129.809 11480)" fill="#3b82f5"/>
    <path id="Pfad_23" data-name="Pfad 23" d="M19.205-9.735,45.688-7.821,51.111,19.3H22.076Z" transform="translate(-22624 11561)" fill="#3b82f5"/>
    <path id="Pfad_28" data-name="Pfad 28" d="M51.111-9.735,24.629-7.821,19.205,19.3H48.24Z" transform="translate(-22126.17 11559)" fill="#3b82f5"/>
    <line id="Linie_57" data-name="Linie 57" x2="30" transform="translate(-22181.5 11264.5)" fill="none" stroke="#3b82f5" stroke-linecap="round" stroke-width="10"/>
    <line id="Linie_58" data-name="Linie 58" x2="32" transform="translate(-22109.5 11578.5)" fill="none" stroke="#3b82f5" stroke-linecap="round" stroke-width="10"/>
    <path id="Pfad_18" data-name="Pfad 18" d="M72.928,314S94.531,183.213-2.064.048" transform="translate(-22149.5 11264.5)" fill="none" stroke="#3b82f5" stroke-linecap="round" stroke-width="10"/>
    <path id="Pfad_17" data-name="Pfad 17" d="M0,314S-21.6,183.213,74.99.048" transform="translate(-22574.5 11264.5)" fill="none" stroke="#3b82f5" stroke-linecap="round" stroke-width="10"/>
    <line id="Linie_54" data-name="Linie 54" x1="495" transform="translate(-22604.5 11578.5)" fill="none" stroke="#000" stroke-linecap="round" stroke-width="10"/>
    <line id="Linie_56" data-name="Linie 56" x1="348" transform="translate(-22529.5 11264.5)" fill="none" stroke="#000" stroke-linecap="round" stroke-width="10"/>
    <path id="Pfad_15" data-name="Pfad 15" d="M0,314S-21.6,183.213,74.99.048" transform="translate(-22604.5 11264.5)" fill="none" stroke="#000" stroke-linecap="round" stroke-width="10"/>
    <path id="Pfad_16" data-name="Pfad 16" d="M72.928,314S94.531,183.213-2.064.048" transform="translate(-22179.5 11264.5)" fill="none" stroke="#000" stroke-linecap="round" stroke-width="10"/>
  </g>
</svg>
