<svg xmlns="http://www.w3.org/2000/svg" width="110.438" height="90.468" viewBox="0 0 110.438 90.468">
  <g id="Gruppe_71" data-name="Gruppe 71" transform="translate(18470.695 -10664.5)">
    <path id="Pfad_32" data-name="Pfad 32" d="M0,0H22.154" transform="translate(-18427.5 10667.5)" fill="none" stroke="#3b82f5" stroke-linecap="round" stroke-width="6"/>
    <path id="Pfad_31" data-name="Pfad 31" d="M0,0H0V21.7" transform="translate(-18405.014 10667.641)" fill="none" stroke="#3b82f5" stroke-linecap="round" stroke-width="6"/>
    <line id="Linie_15" data-name="Linie 15" x1="0.035" y2="21.449" transform="translate(-18428.021 10667.641)" fill="none" stroke="#3b82f5" stroke-linecap="round" stroke-width="6"/>
    <path id="Pfad_33" data-name="Pfad 33" d="M6.629,0H0" transform="translate(-18434.691 10688.757)" fill="none" stroke="#3b82f5" stroke-linecap="round" stroke-width="6"/>
    <line id="Linie_18" data-name="Linie 18" x1="3.949" y2="4.782" transform="translate(-18438.5 10688.718)" fill="none" stroke="#3b82f5" stroke-linecap="round" stroke-width="6"/>
    <line id="Linie_20" data-name="Linie 20" x1="55.42" transform="translate(-18449.027 10693.936)" fill="none" stroke="#3b82f5" stroke-linecap="round" stroke-width="6"/>
    <path id="Pfad_36" data-name="Pfad 36" d="M0-.123V23.564" transform="translate(-18393.607 10693.936)" fill="none" stroke="#3b82f5" stroke-linecap="round" stroke-width="6"/>
    <line id="Linie_21" data-name="Linie 21" x1="17" y2="23" transform="translate(-18466.5 10694.5)" fill="none" stroke="#3b82f5" stroke-linecap="round" stroke-width="6"/>
    <line id="Linie_23" data-name="Linie 23" x1="97" y2="0.474" transform="translate(-18466.5 10717.5)" fill="none" stroke="#3b82f5" stroke-linecap="round" stroke-width="6"/>
    <line id="Linie_24" data-name="Linie 24" y1="9.009" transform="translate(-18461.039 10722.309)" fill="none" stroke="#3b82f5" stroke-linecap="round" stroke-width="6"/>
    <line id="Linie_32" data-name="Linie 32" x1="2.73" y1="4.641" transform="translate(-18463.77 10717.893)" fill="none" stroke="#3b82f5" stroke-linecap="round" stroke-width="6"/>
    <line id="Linie_33" data-name="Linie 33" y1="4.368" x2="2.73" transform="translate(-18371.959 10717.898)" fill="none" stroke="#3b82f5" stroke-linecap="round" stroke-width="6"/>
    <line id="Linie_26" data-name="Linie 26" x2="6.825" y2="20.475" transform="translate(-18461.039 10730.698)" fill="none" stroke="#3b82f5" stroke-linecap="round" stroke-width="6"/>
    <line id="Linie_28" data-name="Linie 28" x1="75.43" transform="translate(-18454.215 10751.174)" fill="none" stroke="#3b82f5" stroke-linecap="round" stroke-width="6"/>
    <line id="Linie_27" data-name="Linie 27" x1="6.825" y2="20.475" transform="translate(-18378.785 10730.698)" fill="none" stroke="#3b82f5" stroke-linecap="round" stroke-width="6"/>
    <line id="Linie_25" data-name="Linie 25" y1="9.282" transform="translate(-18371.959 10722.039)" fill="none" stroke="#3b82f5" stroke-linecap="round" stroke-width="6"/>
    <line id="Linie_19" data-name="Linie 19" x2="4.947" y2="4.782" transform="translate(-18398.551 10688.718)" fill="none" stroke="#3b82f5" stroke-linecap="round" stroke-width="6"/>
    <line id="Linie_17" data-name="Linie 17" x1="6.19" y1="0.257" transform="translate(-18404.5 10688.5)" fill="none" stroke="#3b82f5" stroke-linecap="round" stroke-width="6"/>
    <rect id="Rechteck_226" data-name="Rechteck 226" width="24" height="26" transform="translate(-18428 10668)" fill="#3b82f5"/>
    <path id="Pfad_34" data-name="Pfad 34" d="M0,0H87.025V11.673L77.73,31.278H4.826L-1.127,12.4Z" transform="translate(-18459 10719)" fill="#3b82f5"/>
    <path id="Pfad_35" data-name="Pfad 35" d="M3.134.147H58.689l-.35,28.441-62.5.821-7.491-9.439Z" transform="translate(-18453 10694)" fill="#3b82f5"/>
    <path id="Pfad_37" data-name="Pfad 37" d="M-18354.121,10719.358c.117,10.037,9.441,8.685,9.441,8.685" transform="translate(-37 -13)" fill="none" stroke="#3b82f5" stroke-width="1"/>
    <path id="Pfad_38" data-name="Pfad 38" d="M0,0,7.576-6.153,13.729,0l-4.7,4.409Z" transform="translate(-18399 10716)" fill="#3b82f5"/>
    <g id="Gruppe_70" data-name="Gruppe 70" transform="translate(-3 3)">
      <line id="Linie_60" data-name="Linie 60" x1="9" transform="translate(-18370.5 10686.5)" fill="none" stroke="#3bc2f5" stroke-linecap="round" stroke-width="6"/>
      <line id="Linie_63" data-name="Linie 63" y2="9" transform="translate(-18361.5 10686.5)" fill="none" stroke="#3bc2f5" stroke-linecap="round" stroke-width="6"/>
      <line id="Linie_64" data-name="Linie 64" x1="15" y2="15" transform="translate(-18376.5 10686.5)" fill="none" stroke="#3bc2f5" stroke-linecap="round" stroke-width="6"/>
      <line id="Linie_65" data-name="Linie 65" x1="9" y1="9" transform="translate(-18370.5 10686.5)" fill="none" stroke="#3bc2f5" stroke-linecap="round" stroke-width="6"/>
    </g>
  </g>
</svg>
