<svg xmlns="http://www.w3.org/2000/svg" width="838.139" height="654.932" viewBox="0 0 838.139 654.932">
  <g id="Gruppe_59" data-name="Gruppe 59" transform="translate(23615.688 -10944.5)">
    <line id="Linie_51" data-name="Linie 51" y1="66" transform="translate(-23523.5 11362.5)" fill="none" stroke="#3b82f5" stroke-linecap="round" stroke-width="10"/>
    <line id="Linie_52" data-name="Linie 52" x1="20" y1="34" transform="translate(-23543.5 11328.5)" fill="none" stroke="#3b82f5" stroke-linecap="round" stroke-width="10"/>
    <line id="Linie_53" data-name="Linie 53" y1="32" x2="20" transform="translate(-22859.5 11328.5)" fill="none" stroke="#3b82f5" stroke-linecap="round" stroke-width="10"/>
    <line id="Linie_49" data-name="Linie 49" x2="50" y2="150" transform="translate(-23523.5 11428.5)" fill="none" stroke="#3b82f5" stroke-linecap="round" stroke-width="10"/>
    <line id="Linie_47" data-name="Linie 47" x1="31" transform="translate(-22940.5 11578.5)" fill="none" stroke="#3b82f5" stroke-linecap="round" stroke-width="10"/>
    <line id="Linie_48" data-name="Linie 48" x1="50" y2="150" transform="translate(-22909.5 11428.5)" fill="none" stroke="#3b82f5" stroke-linecap="round" stroke-width="10"/>
    <line id="Linie_45" data-name="Linie 45" y2="80" transform="translate(-23198.5 10949.5)" fill="none" stroke="#3b82f5" stroke-linecap="round" stroke-width="10"/>
    <line id="Linie_46" data-name="Linie 46" x2="30" transform="translate(-23228.5 11029.5)" fill="none" stroke="#3b82f5" stroke-linecap="round" stroke-width="10"/>
    <g id="Rechteck_216" data-name="Rechteck 216" transform="translate(-23229 10950)" fill="#3b82f5" stroke="#3b82f5" stroke-width="1">
      <rect width="29" height="79" stroke="none"/>
      <rect x="0.5" y="0.5" width="28" height="78" fill="none"/>
    </g>
    <line id="Linie_42" data-name="Linie 42" x2="137" y2="181" transform="translate(-22948.5 11147.5)" fill="none" stroke="#3b82f5" stroke-linecap="round" stroke-width="10"/>
    <line id="Linie_41" data-name="Linie 41" x1="136" y2="181" transform="translate(-23563.5 11147.5)" fill="none" stroke="#3b82f5" stroke-linecap="round" stroke-width="10"/>
    <path id="Pfad_7" data-name="Pfad 7" d="M-11.084,15.817,20.834-8.236l-1.4,226.482L-9.057,239.713Z" transform="matrix(0.799, 0.602, -0.602, 0.799, -23450.564, 11142.814)" fill="#3b82f5"/>
    <path id="Pfad_9" data-name="Pfad 9" d="M-65.208,15.385-33.5-8.508,6.028,6.834l-34.3,25.847Z" transform="matrix(0.799, 0.602, -0.602, 0.799, -23521.564, 11356.814)" fill="#3b82f5"/>
    <path id="Pfad_10" data-name="Pfad 10" d="M-65.185-.5-30.839-27.92,25.832,43.514l-50.842,9.3Z" transform="matrix(0.799, 0.602, -0.602, 0.799, -23511.564, 11403.814)" fill="#3b82f5"/>
    <path id="Pfad_11" data-name="Pfad 11" d="M-74.456-5.66-42.9-28.21,88.171,61.712,54.112,85.839Z" transform="matrix(0.799, 0.602, -0.602, 0.799, -23504.564, 11477.814)" fill="#3b82f5"/>
    <line id="Linie_39" data-name="Linie 39" x2="29" y2="38" transform="translate(-23053.5 11108.5)" fill="none" stroke="#3b82f5" stroke-linecap="round" stroke-width="10"/>
    <line id="Linie_37" data-name="Linie 37" y1="157" transform="translate(-23109.5 10950.5)" fill="none" stroke="#3b82f5" stroke-linecap="round" stroke-width="10"/>
    <line id="Linie_38" data-name="Linie 38" x2="31" transform="translate(-23140.5 10949.5)" fill="none" stroke="#3b82f5" stroke-linecap="round" stroke-width="10"/>
    <rect id="Rechteck_215" data-name="Rechteck 215" width="30" height="160" transform="translate(-23140 10949)" fill="#3b82f5"/>
    <line id="Linie_36" data-name="Linie 36" x1="29" y2="39" transform="translate(-23356.5 11108.5)" fill="none" stroke="#3b82f5" stroke-linecap="round" stroke-width="10"/>
    <line id="Linie_34" data-name="Linie 34" x1="264" transform="translate(-23359.5 11108.5)" fill="none" stroke="#3b82f5" stroke-linecap="round" stroke-width="10"/>
    <line id="Linie_40" data-name="Linie 40" x1="52" transform="translate(-23105.5 11108.5)" fill="none" stroke="#3b82f5" stroke-linecap="round" stroke-width="10"/>
    <line id="Linie_43" data-name="Linie 43" x1="52" transform="translate(-23000.5 11147.5)" fill="none" stroke="#3b82f5" stroke-linecap="round" stroke-width="10"/>
    <line id="Linie_44" data-name="Linie 44" x1="53" transform="translate(-22864.5 11328.5)" fill="none" stroke="#3b82f5" stroke-linecap="round" stroke-width="10"/>
    <line id="Linie_35" data-name="Linie 35" y1="157" transform="translate(-23282.5 10951.5)" fill="none" stroke="#3b82f5" stroke-linecap="round" stroke-width="10"/>
    <rect id="Rechteck_214" data-name="Rechteck 214" width="30" height="160" transform="translate(-23313 10950)" fill="#3b82f5"/>
    <path id="Pfad_5" data-name="Pfad 5" d="M-11.084,15.817l27.26-21.94,1.6,46.245L-8.769,59.155Z" transform="matrix(0.799, 0.602, -0.602, 0.799, -23346.564, 11103.814)" fill="#3b82f5"/>
    <path id="Pfad_6" data-name="Pfad 6" d="M-32.308,29.073-1.013,6.749l40.85,13L11.824,41.976Z" transform="matrix(0.799, 0.602, -0.602, 0.799, -23045.564, 11104.814)" fill="#3b82f5"/>
    <path id="Pfad_8" data-name="Pfad 8" d="M-32.308,29.073-1.013,6.749,214.212,70.031,186.235,92.8Z" transform="matrix(0.799, 0.602, -0.602, 0.799, -22944.564, 11140.814)" fill="#3b82f5"/>
    <path id="Pfad_12" data-name="Pfad 12" d="M-4.818-12.245l25.227-19.01,8.517,41.523L5.323,28.054Z" transform="matrix(0.799, 0.602, -0.602, 0.799, -22877.564, 11342.814)" fill="#3b82f5"/>
    <path id="Pfad_13" data-name="Pfad 13" d="M-20.272-19.2,3.809-39.95,44.6,14.179,19.267,33.266Z" transform="matrix(0.799, 0.602, -0.602, 0.799, -22885.564, 11393.814)" fill="#3b82f5"/>
    <path id="Pfad_14" data-name="Pfad 14" d="M-20.344-41.713l26.537-20L53.7,91.369,31.085,108.412Z" transform="matrix(0.799, 0.602, -0.602, 0.799, -22900.564, 11472.814)" fill="#3b82f5"/>
    <line id="Linie_13" data-name="Linie 13" x2="173" transform="translate(-23313.5 10949.5)" fill="none" stroke="#000" stroke-linecap="round" stroke-width="10"/>
    <line id="Linie_29" data-name="Linie 29" y2="80" transform="translate(-23256.5 10949.5)" fill="none" stroke="#000" stroke-linecap="round" stroke-width="10"/>
    <line id="Linie_30" data-name="Linie 30" y2="80" transform="translate(-23226.5 10949.5)" fill="none" stroke="#000" stroke-linecap="round" stroke-width="10"/>
    <line id="Linie_31" data-name="Linie 31" x2="30" transform="translate(-23256.5 11029.5)" fill="none" stroke="#000" stroke-linecap="round" stroke-width="10"/>
    <line id="Linie_14" data-name="Linie 14" y2="159" transform="translate(-23140.5 10949.5)" fill="none" stroke="#000" stroke-linecap="round" stroke-width="10"/>
    <line id="Linie_15" data-name="Linie 15" y2="159" transform="translate(-23313.5 10949.5)" fill="none" stroke="#000" stroke-linecap="round" stroke-width="10"/>
    <line id="Linie_16" data-name="Linie 16" x1="50" transform="translate(-23363.5 11108.5)" fill="none" stroke="#000" stroke-linecap="round" stroke-width="10"/>
    <line id="Linie_18" data-name="Linie 18" x1="29" y2="39" transform="translate(-23392.5 11108.5)" fill="none" stroke="#000" stroke-linecap="round" stroke-width="10"/>
    <line id="Linie_20" data-name="Linie 20" x1="481" transform="translate(-23467.5 11147.5)" fill="none" stroke="#000" stroke-linecap="round" stroke-width="10"/>
    <line id="Linie_21" data-name="Linie 21" x1="136" y2="181" transform="translate(-23603.5 11147.5)" fill="none" stroke="#000" stroke-linecap="round" stroke-width="10"/>
    <line id="Linie_23" data-name="Linie 23" x1="753" transform="translate(-23603.5 11328.5)" fill="none" stroke="#000" stroke-linecap="round" stroke-width="10"/>
    <line id="Linie_24" data-name="Linie 24" y1="66" transform="translate(-23563.5 11362.5)" fill="none" stroke="#000" stroke-linecap="round" stroke-width="10"/>
    <line id="Linie_32" data-name="Linie 32" x1="20" y1="34" transform="translate(-23583.5 11328.5)" fill="none" stroke="#000" stroke-linecap="round" stroke-width="10"/>
    <line id="Linie_33" data-name="Linie 33" y1="32" x2="20" transform="translate(-22890.5 11328.5)" fill="none" stroke="#000" stroke-linecap="round" stroke-width="10"/>
    <line id="Linie_26" data-name="Linie 26" x2="50" y2="150" transform="translate(-23563.5 11428.5)" fill="none" stroke="#000" stroke-linecap="round" stroke-width="10"/>
    <line id="Linie_28" data-name="Linie 28" x1="573" transform="translate(-23513.5 11578.5)" fill="none" stroke="#000" stroke-linecap="round" stroke-width="10"/>
    <line id="Linie_27" data-name="Linie 27" x1="50" y2="150" transform="translate(-22940.5 11428.5)" fill="none" stroke="#000" stroke-linecap="round" stroke-width="10"/>
    <line id="Linie_25" data-name="Linie 25" y1="68" transform="translate(-22890.5 11360.5)" fill="none" stroke="#000" stroke-linecap="round" stroke-width="10"/>
    <line id="Linie_50" data-name="Linie 50" y1="68" transform="translate(-22859.5 11360.5)" fill="none" stroke="#3b82f5" stroke-linecap="round" stroke-width="10"/>
    <line id="Linie_22" data-name="Linie 22" x2="136" y2="181" transform="translate(-22986.5 11147.5)" fill="none" stroke="#000" stroke-linecap="round" stroke-width="10"/>
    <line id="Linie_19" data-name="Linie 19" x2="29" y2="39" transform="translate(-23090.5 11108.5)" fill="none" stroke="#000" stroke-linecap="round" stroke-width="10"/>
    <line id="Linie_17" data-name="Linie 17" x1="50" transform="translate(-23140.5 11108.5)" fill="none" stroke="#000" stroke-linecap="round" stroke-width="10"/>
    <rect id="Rechteck_213" data-name="Rechteck 213" width="29" height="79" transform="translate(-23257 10950)"/>
  </g>
</svg>
