<svg xmlns="http://www.w3.org/2000/svg" xmlns:xlink="http://www.w3.org/1999/xlink" width="30" height="23.239" viewBox="0 0 30 23.239">
  <defs>
    <clipPath id="clip-path">
      <rect id="Rechteck_328" data-name="Rechteck 328" width="30" height="23.239" fill="#ff6ea3"/>
    </clipPath>
  </defs>
  <g id="_2d20a45d79110dc5bf947137e9d99b66" data-name="2d20a45d79110dc5bf947137e9d99b66" clip-path="url(#clip-path)">
    <path id="Pfad_62" data-name="Pfad 62" d="M25.4,2.307A24.739,24.739,0,0,0,19.29.413a.093.093,0,0,0-.1.046,17.233,17.233,0,0,0-.76,1.562,22.839,22.839,0,0,0-6.858,0A15.805,15.805,0,0,0,10.8.46a.1.1,0,0,0-.1-.046A24.67,24.67,0,0,0,4.6,2.307a.087.087,0,0,0-.04.035A25.319,25.319,0,0,0,.124,19.417a.1.1,0,0,0,.039.07,24.878,24.878,0,0,0,7.491,3.787.1.1,0,0,0,.105-.035,17.781,17.781,0,0,0,1.532-2.493.1.1,0,0,0-.052-.132A16.383,16.383,0,0,1,6.9,19.5a.1.1,0,0,1-.009-.16c.157-.118.315-.24.465-.364a.093.093,0,0,1,.1-.013,17.741,17.741,0,0,0,15.077,0,.092.092,0,0,1,.1.012c.15.124.307.248.466.365a.1.1,0,0,1-.008.16,15.373,15.373,0,0,1-2.341,1.114.1.1,0,0,0-.051.133,19.965,19.965,0,0,0,1.531,2.492.1.1,0,0,0,.105.036,24.8,24.8,0,0,0,7.5-3.787.1.1,0,0,0,.039-.069A25.153,25.153,0,0,0,25.435,2.343.076.076,0,0,0,25.4,2.307Zm-15.371,13.7a2.883,2.883,0,0,1-2.7-3.024,2.868,2.868,0,0,1,2.7-3.024,2.852,2.852,0,0,1,2.7,3.024A2.868,2.868,0,0,1,10.025,16.009Zm9.968,0a2.883,2.883,0,0,1-2.7-3.024,2.868,2.868,0,0,1,2.7-3.024,2.852,2.852,0,0,1,2.7,3.024A2.86,2.86,0,0,1,19.993,16.009Z" transform="translate(0 -0.238)" fill="#ff6ea3"/>
  </g>
</svg>
